<?xml version="1.0" encoding="utf-8"?>
<!-- Generator: Adobe Illustrator 16.0.2, SVG Export Plug-In . SVG Version: 6.00 Build 0)  -->
<!DOCTYPE svg PUBLIC "-//W3C//DTD SVG 1.1//EN" "http://www.w3.org/Graphics/SVG/1.1/DTD/svg11.dtd">
<svg version="1.1" id="Layer_1" xmlns="http://www.w3.org/2000/svg" xmlns:xlink="http://www.w3.org/1999/xlink" x="0px" y="0px"
	 width="215.974px" height="146.514px" viewBox="0 0 215.974 146.514" enable-background="new 0 0 215.974 146.514"
	 xml:space="preserve">
<path fill-rule="evenodd" clip-rule="evenodd" fill="#FFFFFF" d="M74.759,133.843c17.717-17.461,36.3-35.617,54.703-53.954
	c25.851-25.756,51.566-51.647,77.346-77.476c0.822-0.823,1.639-2.174,2.56-2.268c1.939-0.197,4.467-0.363,5.761,0.685
	c1.01,0.818,1.008,3.616,0.555,5.291c-0.388,1.432-1.998,2.574-3.166,3.747C168.528,54.012,124.53,98.146,80.531,142.278
	c-5.595,5.611-7.124,5.645-12.607,0.116c-21.706-21.885-43.396-43.786-65.083-65.69c-0.936-0.944-2.314-1.87-2.542-2.995
	c-0.355-1.755-0.569-4.274,0.399-5.354c0.969-1.079,3.623-1.368,5.246-0.927c1.581,0.43,2.854,2.159,4.156,3.426
	C31.713,91.889,53.308,112.94,74.759,133.843z"/>
</svg>
