<svg height="451pt" viewBox="0 -1 451.59639 451" width="451pt" xmlns="http://www.w3.org/2000/svg"><path d="m372 259.636719v-118.375c-.03125-25.515625-20.710938-46.191407-46.230469-46.21875h-3.097656v-2.191407c-.027344-25.515624-20.703125-46.199218-46.222656-46.230468h-75.488281c-1.140626.003906-2.226563-.476563-2.992188-1.316406l-27.390625-29.964844c-8.761719-9.570313-21.140625-15.027344-34.117187-15.042969h-90.242188c-25.515625.03125-46.1914062 20.707031-46.21875 46.222656v263.570313c.0273438 25.511718 20.703125 46.191406 46.21875 46.21875h213.398438c1.101562 50.605468 41.300781 91.664062 91.875 93.828125 50.570312 2.164062 94.132812-35.308594 99.550781-85.632813 5.421875-50.328125-29.167969-96.214844-79.039063-104.867187zm-325.78125 84.671875c-18.890625-.023438-34.195312-15.332032-34.21875-34.21875v-263.570313c.023438-18.890625 15.328125-34.199219 34.21875-34.222656h90.242188c9.609374.011719 18.773437 4.054687 25.261718 11.140625l27.378906 29.945312c3.039063 3.335938 7.34375 5.234376 11.859376 5.234376h75.488281c18.894531.023437 34.203125 15.335937 34.21875 34.230468v2.191406h-179.773438c-25.515625.03125-46.1875 20.710938-46.214843 46.222657v168.832031c-.023438 18.894531-15.335938 34.203125-34.230469 34.21875zm50.460938-34.21875v-168.828125c.019531-18.890625 15.328124-34.199219 34.21875-34.21875h194.871093c18.894531.019531 34.207031 15.328125 34.230469 34.21875v117.070312c-1.464844-.066406-2.933594-.105469-4.410156-.105469-49.15625.0625-90.347656 37.195313-95.492188 86.082032h-178.605468c9.675781-8.746094 15.191406-21.179688 15.1875-34.21875zm258.910156 128.136718c-46.394532 0-84-37.605468-84-84 0-46.390624 37.605468-84 84-84 46.390625 0 84 37.609376 84 84-.058594 46.371094-37.632813 83.945313-84 84zm0 0"/><path d="m405.589844 348.226562h-44v-44c0-3.3125-2.6875-6-6-6-3.316406 0-6 2.6875-6 6v44h-44c-3.316406 0-6 2.6875-6 6 0 3.316407 2.683594 6 6 6h44v44c0 3.316407 2.683594 6 6 6 3.3125 0 6-2.683593 6-6v-44h44c3.3125 0 6-2.683593 6-6 0-3.3125-2.6875-6-6-6zm0 0"/><path d="m275.394531 258.234375c0-.828125-.050781-1.660156-.144531-2.484375v-76.867188c0-3.867187-1.738281-7.527343-4.730469-9.976562-2.992187-2.445312-6.929687-3.421875-10.71875-2.65625l-54.390625 11.019531c-6 1.230469-10.316406 6.503907-10.332031 12.632813v38.785156c-8.71875-4.402344-19.304687-2.472656-25.914063 4.722656-6.613281 7.191406-7.636718 17.902344-2.515624 26.222656 5.121093 8.320313 15.148437 12.222657 24.546874 9.558594 9.398438-2.660156 15.886719-11.246094 15.882813-21.015625v-29.929687l56.171875-11.382813v31.800781c-8.738281-4.332031-19.292969-2.339843-25.855469 4.878907-6.558593 7.21875-7.539062 17.910156-2.394531 26.199219 5.140625 8.289062 15.15625 12.164062 24.539062 9.492187 9.382813-2.671875 15.851563-11.242187 15.855469-21zm-90.15625-.214844c-5.4375 0-9.84375-4.40625-9.84375-9.84375 0-5.433593 4.40625-9.839843 9.84375-9.839843 5.433594 0 9.839844 4.40625 9.839844 9.839843-.003906 5.433594-4.40625 9.835938-9.839844 9.84375zm21.839844-52.019531v-16.097656c.003906-.421875.300781-.785156.714844-.871094l54.390625-11.019531c.261718-.058594.535156.007812.738281.183593.210937.164063.332031.421876.328125.6875v15.742188zm36.628906 52.234375c0-5.117187 3.925781-9.378906 9.023438-9.800781 5.101562-.425782 9.671875 3.132812 10.519531 8.179687v1.332031c0 .367188.03125.738282.097656 1.101563-.429687 5.257813-4.933594 9.238281-10.207031 9.023437-5.273437-.214843-9.4375-4.554687-9.4375-9.832031zm0 0"/></svg>