<?xml version="1.0" encoding="utf-8"?>
<!-- Generator: Adobe Illustrator 16.0.2, SVG Export Plug-In . SVG Version: 6.00 Build 0)  -->
<!DOCTYPE svg PUBLIC "-//W3C//DTD SVG 1.1//EN" "http://www.w3.org/Graphics/SVG/1.1/DTD/svg11.dtd">
<svg version="1.1" id="Layer_1" xmlns="http://www.w3.org/2000/svg" xmlns:xlink="http://www.w3.org/1999/xlink" x="0px" y="0px"
	 width="319.147px" height="297.022px" viewBox="0 0 319.147 297.022" enable-background="new 0 0 319.147 297.022"
	 xml:space="preserve">
<path fill-rule="evenodd" clip-rule="evenodd" d="M1468.782,787.075c-1.136-0.971-2.348-2.004-4.353-3.717c3.513,0,5.908,0,9.665,0
	C1471.819,784.95,1470.414,785.933,1468.782,787.075z"/>
<g>
	<polygon fill="none" points="109.808,264.772 109.803,259.276 109.802,264.772 	"/>
	<path fill="none" d="M236.102,80.519l-0.241-5.5l0.102,5.486C236.01,80.511,236.056,80.516,236.102,80.519z"/>
	<polygon fill="none" points="272.831,80.531 272.823,75.035 272.823,80.531 	"/>
	<path fill="none" d="M272.926,91.975l0.194,5.5l-0.09-5.491C272.995,91.98,272.96,91.977,272.926,91.975z"/>
	<path fill="none" d="M243.935,253.805l-14.355-0.008c-3.438,0-7.505,0.01-11.62,0.089c-3.568,0.073-7.008,3.551-7.079,7.152
		c-0.127,6.227-0.124,12.514,0.01,18.688c0.078,3.59,3.527,7.058,7.102,7.136c2.986,0.062,6.146,0.093,9.39,0.093
		c3.031,0,6.153-0.026,9.548-0.08c3.514-0.058,6.884-3.361,6.936-6.798c0.082-5.489,0.077-10.892,0.072-16.612L243.935,253.805z"/>
	<path fill="none" d="M291.379,253.901c-4.345-0.076-8.678-0.086-12.344-0.086l-13.781,0.006v33.121l14.367,0.009
		c3.369,0,7.362-0.01,11.431-0.088c3.605-0.07,7.087-3.527,7.164-7.112c0.129-5.951,0.134-12.065,0.017-18.689
		C298.176,257.81,295.174,253.973,291.379,253.901z"/>
	<path fill="none" d="M272.926,91.975l0.194,5.5l-0.09-5.491C272.995,91.98,272.96,91.977,272.926,91.975z"/>
	<polygon fill="none" points="272.831,80.531 272.823,75.035 272.823,80.531 	"/>
	<path fill="none" d="M163.424,253.891c-3.809,0.074-6.83,3.894-6.887,7.131c-0.109,6.187-0.106,12.461,0.009,18.645
		c0.058,3.262,3.063,7.109,6.855,7.181c4.339,0.077,8.67,0.087,12.334,0.087l13.886-0.006v-33.117l-13.967-0.007
		C172.031,253.806,167.746,253.816,163.424,253.891z"/>
	<path fill="none" d="M74.495,253.901c-4.416-0.067-8.884-0.077-12.673-0.077l-13.669,0.005l-0.003,9.835
		c-0.006,5.626-0.012,10.941,0.081,16.322c0.067,3.809,3.871,6.83,7.096,6.888c3.187,0.058,6.342,0.087,9.377,0.087
		c3.15,0,6.277-0.032,9.294-0.094c3.269-0.067,7.133-3.153,7.217-7.033c0.123-5.719,0.131-11.915,0.024-18.939
		C81.191,257.703,78.231,253.951,74.495,253.901z"/>
	<path fill="none" d="M241.897,71.729c-1.437-1.468-3.412-2.212-5.872-2.212l-0.267,0.002c-2.729,0.051-5.458,0.039-8.19,0.026
		c-1.159-0.005-2.318-0.01-3.478-0.01l-13.274,0l-0.004,9.88c-0.009,5.741-0.017,11.163,0.112,16.648
		c0.1,4.279,4.635,6.743,7.731,6.811c2.509,0.055,4.974,0.062,7.055,0.062l4.863-0.005c1.739,0,3.479,0.006,5.218,0.031l0.21,0.001
		c0.919,0,3.718,0,5.881-2.204c1.442-1.47,2.15-3.469,2.104-5.942c-0.111-5.852-0.108-11.623,0.01-17.152
		C244.05,75.204,243.344,73.207,241.897,71.729z"/>
	<path fill="none" d="M133.614,255.915c-0.956-0.972-2.688-2.131-5.517-2.131l-0.106,0c-6.019,0.056-12.042,0.056-18.062-0.011
		l-0.126-0.001c-2.27,0-4.126,0.71-5.519,2.11c-1.393,1.4-2.093,3.264-2.081,5.54c0.03,5.481,0.035,11.319,0.016,17.85
		c-0.005,2.318,0.701,4.205,2.099,5.606c0.954,0.956,2.674,2.096,5.45,2.096l0.115-0.001c6.022-0.063,11.955-0.055,18.165-0.005
		c2.294,0,4.166-0.722,5.564-2.146c0.96-0.979,2.094-2.743,2.041-5.591c-0.037-1.99-0.028-4.046-0.021-6.035l0.007-2.53
		l-0.006-2.707c-0.007-2.115-0.015-4.303,0.021-6.424C135.695,259.225,135.008,257.334,133.614,255.915z"/>
	<path d="M318.362,80.09c-2.628-12.037-13.534-20.454-26.522-20.469c-26.331-0.031-52.663-0.019-78.992-0.006l-19.85,0.008
		c0.769,3.909,1.496,7.631,2.177,11.449c2.324,13.02,1.698,26.483-1.914,41.158c-0.359,1.459-0.744,2.902-1.156,4.333
		c2.151-2.3,5.37-3.533,9.494-3.535c28.117-0.017,56.235-0.017,84.352-0.006c7.727,0.002,12.345,4.622,12.353,12.356
		c0.013,12.769,0.011,25.536,0.009,38.304l-0.007,40.021c-0.001,9.109-0.001,18.218-0.006,27.326
		c-0.003,7.936-4.749,12.675-12.696,12.677l-41.895,0.004l-41.894-0.003c-8.139,0-12.809-4.692-12.812-12.875
		c-0.014-35.003-0.014-70.008,0-105.012c-6.458,16.782-16.813,31.351-30.902,43.441c-0.679,0.583-0.84,0.77-0.833,2.026
		c0.092,17.049,0.076,34.375,0.06,51.13l-0.007,7.776c-0.007,8.975-4.595,13.525-13.637,13.525l-41.352,0.003
		c-13.784,0-27.569-0.001-41.354-0.005c-8.277-0.001-12.838-4.534-12.843-12.763l-0.01-8.94c-0.015-10.809-0.03-21.982,0.063-32.993
		c-6.431-2.67-11.693-5.121-16.525-7.696c-1.603-0.854-3.13-1.768-4.641-2.727v22.611c0.001,22.553,0.002,45.106-0.009,67.66
		c-0.008,16.292,11.688,28.123,27.812,28.131c78.961,0.039,157.927,0.021,236.892-0.029c2.543-0.002,4.895-0.268,6.987-0.789
		c12.391-3.089,20.404-13.461,20.415-26.424c0.043-56.478,0.04-116.175-0.009-182.501C319.106,84.762,318.855,82.351,318.362,80.09z
		 M243.986,94.817c0.047,2.473-0.661,4.472-2.104,5.942c-2.163,2.204-4.961,2.204-5.881,2.204l-0.21-0.001
		c-1.738-0.025-3.479-0.031-5.218-0.031l-4.863,0.005c-2.081,0-4.546-0.007-7.055-0.062c-3.097-0.067-7.631-2.532-7.731-6.811
		c-0.129-5.485-0.121-10.907-0.112-16.648l0.004-9.88l13.274,0c1.159,0,2.318,0.005,3.478,0.01c2.731,0.013,5.461,0.024,8.19-0.026
		l0.267-0.002c2.459,0,4.435,0.744,5.872,2.212c1.446,1.478,2.152,3.475,2.099,5.937C243.878,83.194,243.875,88.965,243.986,94.817z
		 M81.215,279.834c-0.083,3.88-3.948,6.966-7.217,7.033c-3.017,0.062-6.145,0.094-9.294,0.094c-3.036,0-6.191-0.029-9.377-0.087
		c-3.226-0.058-7.029-3.079-7.096-6.888c-0.093-5.381-0.087-10.695-0.081-16.322l0.003-9.835l13.669-0.005
		c3.789,0,8.258,0.009,12.673,0.077c3.736,0.05,6.696,3.802,6.744,6.995C81.346,267.92,81.338,274.116,81.215,279.834z
		 M135.633,267.959l0.006,2.707l-0.007,2.53c-0.008,1.988-0.017,4.044,0.021,6.035c0.053,2.849-1.081,4.613-2.041,5.591
		c-1.398,1.424-3.27,2.146-5.564,2.146c-6.21-0.05-12.142-0.059-18.165,0.005l-0.115,0.001c-2.776,0-4.496-1.14-5.45-2.096
		c-1.398-1.401-2.104-3.288-2.099-5.606c0.019-6.531,0.014-12.369-0.016-17.85c-0.012-2.276,0.688-4.14,2.081-5.54
		c1.393-1.4,3.25-2.11,5.519-2.11l0.126,0.001c6.02,0.066,12.043,0.067,18.062,0.011l0.106,0c2.829,0,4.561,1.159,5.517,2.131
		c1.395,1.419,2.082,3.31,2.041,5.62C135.618,263.657,135.626,265.844,135.633,267.959z M189.622,286.929l-13.886,0.006
		c-3.665,0-7.995-0.01-12.334-0.087c-3.792-0.071-6.797-3.918-6.855-7.181c-0.115-6.184-0.118-12.458-0.009-18.645
		c0.057-3.237,3.078-7.058,6.887-7.131c4.322-0.075,8.607-0.085,12.231-0.085l13.967,0.007V286.929z M243.865,280.077
		c-0.052,3.437-3.422,6.741-6.936,6.798c-3.395,0.053-6.517,0.08-9.548,0.08c-3.244,0-6.404-0.032-9.39-0.093
		c-3.574-0.078-7.023-3.545-7.102-7.136c-0.133-6.174-0.137-12.461-0.01-18.688c0.07-3.602,3.51-7.08,7.079-7.152
		c4.115-0.079,8.183-0.089,11.62-0.089l14.355,0.008l0.002,9.66C243.942,269.185,243.947,274.588,243.865,280.077z M298.216,279.751
		c-0.076,3.585-3.558,7.042-7.164,7.112c-4.069,0.078-8.062,0.088-11.431,0.088l-14.367-0.009v-33.121l13.781-0.006
		c3.666,0,7.999,0.01,12.344,0.086c3.794,0.072,6.797,3.908,6.853,7.161C298.35,267.686,298.345,273.8,298.216,279.751z
		 M298.336,77.669c-0.09,6.646-0.09,12.1-0.002,17.167c0.043,2.449-0.668,4.437-2.115,5.909c-2.177,2.215-5,2.215-5.928,2.215
		l-0.182-0.001c-5.717-0.07-11.559-0.071-16.9,0.016l-0.223,0.002c-2.491,0-4.485-0.765-5.929-2.275
		c-1.448-1.514-2.125-3.546-2.013-6.041c0.085-1.873,0.066-3.769,0.046-5.776c-0.009-0.882-0.018-1.764-0.018-2.645
		c0-0.864,0.007-1.726,0.014-2.589c0.017-2.037,0.032-3.96-0.039-5.875c-0.092-2.492,0.594-4.514,2.037-6.012
		c1.428-1.481,3.358-2.232,5.737-2.232l0.117,0.001c5.834,0.057,11.674,0.053,17.509-0.002l0.109,0c2.329,0,4.231,0.73,5.653,2.171
		C298.387,73.907,298.349,76.739,298.336,77.669z"/>
	<path fill-rule="evenodd" clip-rule="evenodd" d="M172.775,85.603c0.182,47.443-37.511,86.126-85.427,86.878
		C40.089,173.222,0.88,135.15,0.015,87.544C-0.854,39.798,37.461,0.425,85.825,0.003C132.757-0.406,172.104,36.836,172.775,85.603z
		 M151.794,86.177c-0.017-36.013-29.175-64.917-65.184-65.264c-35.769-0.344-65.696,29.731-65.68,65.366
		c0.016,35.552,29.958,65.208,65.223,65.299C121.472,151.67,152.074,122.47,151.794,86.177z"/>
	<path fill-rule="evenodd" clip-rule="evenodd" d="M54.06,86.046c0-12.054-0.031-24.109,0.04-36.163
		c0.009-1.44,0.315-3.001,0.934-4.291c1.181-2.459,3.183-2.941,5.551-1.589c21.975,12.541,43.944,25.09,65.909,37.646
		c3.77,2.154,3.944,6.792,0.194,8.991c-9.02,5.288-18.117,10.445-27.196,15.629c-12.404,7.083-24.827,14.132-37.228,21.22
		c-1.787,1.021-3.831,2.749-5.566,1.058c-1.412-1.377-2.437-3.786-2.517-5.782c-0.293-7.277-0.12-14.572-0.121-21.861
		C54.059,95.951,54.06,90.999,54.06,86.046z"/>
</g>
</svg>
