<?xml version="1.0" encoding="utf-8"?>
<!-- Generator: Adobe Illustrator 16.0.2, SVG Export Plug-In . SVG Version: 6.00 Build 0)  -->
<!DOCTYPE svg PUBLIC "-//W3C//DTD SVG 1.1//EN" "http://www.w3.org/Graphics/SVG/1.1/DTD/svg11.dtd">
<svg version="1.1" id="Layer_1" xmlns="http://www.w3.org/2000/svg" xmlns:xlink="http://www.w3.org/1999/xlink" x="0px" y="0px"
	 width="379px" height="366px" viewBox="0 0 379 366" enable-background="new 0 0 379 366" xml:space="preserve">
<g>
	<path fill="#FFCD1F" d="M77.342,134.848c19.494,0,38.99-0.133,58.48,0.106c4.203,0.052,5.674-1.6,6.862-5.296
		c11.935-37.09,24.089-74.107,36.053-111.188c1.595-4.939,4.2-8.357,9.584-8.724c4.538-0.309,8,2.916,9.937,8.875
		c11.833,36.422,23.769,72.812,35.348,109.314c1.691,5.334,3.908,7.111,9.662,7.063c37.987-0.317,75.979-0.168,113.968-0.17
		c0.499,0,1,0.038,1.499,0.023c4.989-0.144,9.133,1.717,10.693,6.523c1.559,4.798-0.73,8.702-4.758,11.629
		c-14.689,10.676-29.345,21.399-44.021,32.091c-17.102,12.457-34.15,24.988-51.38,37.269c-3.2,2.281-3.552,4.326-2.396,7.854
		c12.035,36.703,23.905,73.458,35.819,110.203c0.36,1.107,0.771,2.209,1.021,3.344c0.934,4.252,0.072,8.203-3.493,10.738
		c-3.554,2.527-7.681,2.266-11.254-0.227c-7.104-4.957-14.058-10.125-21.063-15.224c-25.319-18.437-50.66-36.84-75.911-55.368
		c-2.622-1.925-4.432-1.841-7.013,0.049c-30.512,22.342-61.104,44.574-91.674,66.836c-1.48,1.078-2.953,2.172-4.443,3.235
		c-3.903,2.794-8.248,3.373-12.11,0.636c-3.918-2.777-4.612-7.104-3.138-11.681c4.905-15.215,9.8-30.432,14.723-45.639
		c7.229-22.334,14.407-44.685,21.791-66.964c1.175-3.545,0.698-5.524-2.479-7.817c-31.2-22.526-62.263-45.247-93.362-67.912
		c-0.942-0.687-1.917-1.335-2.818-2.072c-3.539-2.896-5.351-6.696-3.871-11.06c1.473-4.343,5.168-6.412,9.76-6.452
		c7.998-0.07,15.996-0.018,23.994-0.017c11.996,0,23.993,0,35.99,0C77.342,134.834,77.342,134.841,77.342,134.848z M188.703,27.143
		c-1.058,2.75-1.697,4.216-2.19,5.729c-11.144,34.2-22.255,68.41-33.41,102.607c-3.042,9.323-5.848,11.32-15.605,11.323
		c-34.991,0.01-69.983,0.006-104.977,0.007c-2.068,0.001-4.139,0-6.208,0c0.875,2.207,2.036,3.281,3.307,4.206
		c28.818,20.982,57.633,41.974,86.491,62.901c7.278,5.276,8.64,8.805,5.842,17.479c-10.324,32.014-20.718,64.004-31.056,96.014
		c-1.235,3.828-2.29,7.715-3.816,12.891c2.7-1.891,4.188-2.896,5.64-3.953c29.107-21.16,58.194-42.35,87.328-63.475
		c6.313-4.576,10.711-4.547,16.843-0.086c24.788,18.031,49.539,36.113,74.325,54.148c5.843,4.25,11.77,8.387,18.744,13.35
		c-0.874-3.068-1.31-4.791-1.854-6.477c-10.894-33.755-21.812-67.5-32.697-101.257c-3.277-10.165-2.148-13.051,6.571-19.374
		c28.458-20.636,56.857-41.354,85.267-62.058c1.354-0.987,2.58-2.151,3.865-3.233c-0.172-0.357-0.344-0.716-0.516-1.074
		c-1.635,0-3.27,0-4.903,0c-35.325-0.002-70.649-0.003-105.977-0.005c-9.776-0.001-12.783-2.001-15.786-11.143
		c-7.483-22.783-14.86-45.602-22.265-68.411C197.462,54.302,193.29,41.339,188.703,27.143z"/>
</g>
<path fill="#FFCD1F" d="M188.703,27.143c4.587,14.196,8.759,27.159,12.963,40.111c7.403,22.81,14.78,45.628,22.265,68.411
	c3.003,9.142,6.01,11.142,15.786,11.143c35.326,0.002,70.65,0.003,105.977,0.005c1.635,0,3.27,0,4.903,0
	c0.172,0.358,0.344,0.717,0.516,1.074c-1.285,1.082-2.511,2.246-3.865,3.233c-28.408,20.704-56.809,41.422-85.267,62.058
	c-8.721,6.323-9.85,9.209-6.571,19.374c10.887,33.756,21.805,67.502,32.697,101.256c0.544,1.687,0.979,3.408,1.854,6.478
	c-6.976-4.964-12.901-9.101-18.744-13.351c-24.786-18.035-49.537-36.117-74.325-54.147c-6.132-4.461-10.53-4.49-16.843,0.086
	c-29.134,21.125-58.221,42.313-87.328,63.476c-1.451,1.057-2.938,2.063-5.64,3.952c1.526-5.176,2.581-9.063,3.816-12.891
	c10.338-32.011,20.73-64,31.056-96.015c2.798-8.674,1.438-12.201-5.842-17.479c-28.858-20.928-57.673-41.919-86.491-62.901
	c-1.271-0.925-2.432-1.999-3.307-4.206c2.069,0,4.14,0.001,6.208,0c34.992-0.001,69.984,0.003,104.977-0.007
	c9.759-0.003,12.563-2,15.605-11.323c11.155-34.197,22.268-68.407,33.41-102.607C187.006,31.359,187.646,29.893,188.703,27.143z"/>
</svg>
