<?xml version="1.0" encoding="utf-8"?>
<!-- Generator: Adobe Illustrator 16.0.2, SVG Export Plug-In . SVG Version: 6.00 Build 0)  -->
<!DOCTYPE svg PUBLIC "-//W3C//DTD SVG 1.1//EN" "http://www.w3.org/Graphics/SVG/1.1/DTD/svg11.dtd">
<svg version="1.1" id="Layer_1" xmlns="http://www.w3.org/2000/svg" xmlns:xlink="http://www.w3.org/1999/xlink" x="0px" y="0px"
	 width="94.169px" height="56.03px" viewBox="0 0 94.169 56.03" enable-background="new 0 0 94.169 56.03" xml:space="preserve">
<path d="M81.595,13.458c-9.166,5.513-9.312,5.27-9.578-5.393c-0.146-5.869-2.279-7.998-8.288-8.032
	C54.564-0.019,45.398,0.02,36.232,0.016C27.067,0.011,17.901-0.021,8.736,0.021C2.114,0.052,0.051,2.079,0.03,8.639
	c-0.041,12.998-0.039,25.997,0.004,38.995c0.02,6.205,2.177,8.356,8.454,8.37C26.819,56.042,45.15,56.037,63.481,56
	c6.312-0.013,8.435-2.136,8.532-8.304c0.034-2.166,0.119-4.339-0.011-6.498c-0.217-3.602,1.324-3.487,3.792-2.018
	c3.578,2.129,7.123,4.339,10.838,6.203c4.283,2.149,7.246,0.342,7.343-4.429c0.136-6.663-0.255-13.347,0.11-19.993
	C94.779,8.305,91.282,7.631,81.595,13.458z M90.033,38.477c0.045,3.315-1.083,3.744-3.787,2.118
	c-4.277-2.572-8.615-5.049-12.999-7.435c-3.926-2.137-5.047-1.492-5.195,2.892c-0.106,3.16-0.301,6.354,0.026,9.483
	c0.515,4.912-1.06,6.845-6.311,6.589c-8.637-0.42-17.309-0.114-25.966-0.115c-8.99,0-17.983-0.13-26.969,0.062
	c-3.74,0.08-4.91-1.333-4.866-4.965C4.119,34.289,4.104,21.467,3.976,8.649C3.942,5.217,5.135,3.948,8.613,3.97
	c18.313,0.115,36.627,0.125,54.94,0.004c3.615-0.024,4.655,1.498,4.498,4.798c-0.166,3.488-0.074,6.992-0.019,10.487
	c0.083,5.309,1.115,5.87,5.912,3.225c4.225-2.33,8.443-4.676,12.62-7.091c2.571-1.486,3.51-0.824,3.471,2.109
	C89.942,24.492,89.938,31.486,90.033,38.477z"/>
</svg>
