<svg height="512pt" viewBox="0 -38 512 512" width="512pt" xmlns="http://www.w3.org/2000/svg"><path d="m492 0h-472c-11.046875 0-20 8.953125-20 20v396c0 11.046875 8.953125 20 20 20h472c11.046875 0 20-8.953125 20-20 0-9.753906 0-383.949219 0-396 0-11.046875-8.953125-20-20-20zm-20 396h-432v-260h432zm0-300h-432v-56h432zm-216 280c60.585938 0 110-49.300781 110-110 0-60.652344-49.347656-110-110-110-60.585938 0-110 49.300781-110 110 0 60.652344 49.347656 110 110 110zm0-180c38.597656 0 70 31.402344 70 70 0 12.039062-3.058594 23.378906-8.433594 33.28125l-94.847656-94.847656c9.902344-5.378906 21.242188-8.433594 33.28125-8.433594zm-61.566406 36.71875 94.847656 94.847656c-9.902344 5.375-21.242188 8.433594-33.28125 8.433594-38.597656 0-70-31.402344-70-70 0-12.039062 3.058594-23.378906 8.433594-33.28125zm0 0"/></svg>