<?xml version="1.0" encoding="utf-8"?>
<!-- Generator: Adobe Illustrator 16.0.2, SVG Export Plug-In . SVG Version: 6.00 Build 0)  -->
<!DOCTYPE svg PUBLIC "-//W3C//DTD SVG 1.1//EN" "http://www.w3.org/Graphics/SVG/1.1/DTD/svg11.dtd">
<svg version="1.1" id="Layer_1" xmlns="http://www.w3.org/2000/svg" xmlns:xlink="http://www.w3.org/1999/xlink" x="0px" y="0px"
	 width="158.566px" height="241.429px" viewBox="0 0 158.566 241.429" enable-background="new 0 0 158.566 241.429"
	 xml:space="preserve">
<g>
	<path fill-rule="evenodd" clip-rule="evenodd" fill="#FFFFFF" d="M28.717,121c0.004-35.142-0.036-70.282,0.027-105.423
		c0.02-10.965,9.619-17.77,18.858-13.416c6.033,2.843,7.814,8.146,7.802,14.447c-0.051,25.814-0.02,51.629-0.019,77.443
		c0.001,42.97,0.008,85.939-0.014,128.908c-0.001,2.322-0.019,4.68-0.403,6.957c-1.172,6.938-6.354,11.211-13.198,11.107
		c-6.613-0.102-11.948-4.848-12.904-11.611c-0.232-1.637-0.146-3.324-0.147-4.988C28.712,189.95,28.714,155.476,28.717,121z"/>
	<path fill-rule="evenodd" clip-rule="evenodd" fill="#FFFFFF" d="M121.847,121.079c-0.004,35.135,0.013,70.27-0.016,105.404
		c-0.007,7.93-4.264,13.436-10.946,14.42c-8.48,1.248-15.229-4.586-15.271-13.559c-0.101-22.479-0.041-44.959-0.042-67.438
		c-0.003-47.291-0.004-94.582,0.001-141.871c0-1.832-0.058-3.676,0.131-5.49c0.681-6.569,6.207-11.549,12.826-11.66
		c6.773-0.115,12.549,4.992,13.195,11.798c0.203,2.147,0.12,4.325,0.12,6.489C121.853,53.142,121.851,87.11,121.847,121.079z"/>
</g>
</svg>
