<?xml version="1.0" encoding="utf-8"?>
<!-- Generator: Adobe Illustrator 16.0.2, SVG Export Plug-In . SVG Version: 6.00 Build 0)  -->
<!DOCTYPE svg PUBLIC "-//W3C//DTD SVG 1.1//EN" "http://www.w3.org/Graphics/SVG/1.1/DTD/svg11.dtd">
<svg version="1.1" id="Layer_1" xmlns="http://www.w3.org/2000/svg" xmlns:xlink="http://www.w3.org/1999/xlink" x="0px" y="0px"
	 width="158.566px" height="239.899px" viewBox="0 0 158.566 239.899" enable-background="new 0 0 158.566 239.899"
	 xml:space="preserve">
<g>
	<path fill-rule="evenodd" clip-rule="evenodd" fill="#FFFFFF" d="M20.473-204.398c0.004-35.141-0.036-70.282,0.027-105.423
		c0.02-10.964,9.619-17.77,18.858-13.416c6.033,2.843,7.814,8.147,7.802,14.448c-0.051,25.814-0.02,51.629-0.019,77.444
		c0.001,42.969,0.008,85.939-0.014,128.908c-0.001,2.322-0.019,4.68-0.403,6.957c-1.172,6.938-6.354,11.211-13.198,11.107
		c-6.613-0.102-11.948-4.848-12.904-11.611c-0.232-1.637-0.146-3.324-0.147-4.988C20.468-135.448,20.47-169.923,20.473-204.398z"/>
	<path fill-rule="evenodd" clip-rule="evenodd" fill="#FFFFFF" d="M113.603-204.319c-0.004,35.135,0.013,70.27-0.016,105.404
		c-0.007,7.93-4.264,13.436-10.946,14.42c-8.48,1.248-15.229-4.586-15.271-13.559c-0.101-22.479-0.041-44.959-0.042-67.438
		c-0.003-47.291-0.004-94.582,0.001-141.872c0-1.831-0.058-3.675,0.131-5.49c0.681-6.569,6.207-11.548,12.826-11.661
		c6.773-0.115,12.549,4.993,13.195,11.798c0.203,2.148,0.12,4.325,0.12,6.489C113.608-272.257,113.606-238.288,113.603-204.319z"/>
</g>
<path fill-rule="evenodd" clip-rule="evenodd" fill="#FFFFFF" d="M0.06,119.404c0-34.487,0.067-68.974-0.06-103.46
	C-0.023,9.619,1.348,4.285,7.414,1.364c6.246-3.009,11.38-0.672,16.437,3.429c42.426,34.399,84.943,68.687,127.449,102.985
	c9.7,7.827,9.697,16.495-0.06,24.373c-42.626,34.421-85.266,68.821-127.831,103.315c-4.949,4.01-10.06,5.957-16.059,3.018
	c-5.815-2.848-7.367-7.943-7.347-14.121C0.118,189.377,0.059,154.392,0.06,119.404z M26.541,198.775
	c32.981-26.65,65.028-52.546,97.562-78.834C91.444,93.568,59.356,67.655,26.541,41.154C26.541,94.191,26.541,145.796,26.541,198.775
	z"/>
</svg>
