<?xml version="1.0" encoding="utf-8"?>
<!-- Generator: Adobe Illustrator 16.0.2, SVG Export Plug-In . SVG Version: 6.00 Build 0)  -->
<!DOCTYPE svg PUBLIC "-//W3C//DTD SVG 1.1//EN" "http://www.w3.org/Graphics/SVG/1.1/DTD/svg11.dtd">
<svg version="1.1" id="Layer_1" focusable="false" xmlns="http://www.w3.org/2000/svg" xmlns:xlink="http://www.w3.org/1999/xlink"
	 x="0px" y="0px" width="250px" height="250px" viewBox="0 0 250 250" enable-background="new 0 0 250 250" xml:space="preserve">
<g>
	<path d="M202.396,135.209c0.416-3.334,0.729-6.668,0.729-10.209c0-3.542-0.313-6.875-0.729-10.208l21.875-17.188
		c2.082-1.563,2.604-4.375,1.354-6.667l-20.834-36.042c-1.25-2.292-4.166-3.125-6.25-2.292L172.5,63.021
		c-5.416-4.167-11.25-7.604-17.709-10.208l-3.854-27.604c-0.625-2.5-2.813-4.375-5.209-4.375h-41.666c-2.813,0-5,1.875-5.208,4.375
		l-4.167,27.604c-6.25,2.604-12.188,6.25-17.708,10.208L51.146,52.604c-2.396-1.042-5.208,0-6.25,2.292L24.063,90.938
		c-1.458,2.292-0.833,5.208,1.042,6.667l22.083,17.188c-0.417,3.333-0.729,6.771-0.729,10.208s0.208,6.875,0.625,10.209
		l-21.875,17.188c-2.083,1.563-2.604,4.375-1.354,6.666l20.833,36.041c1.25,2.293,4.167,3.125,6.25,2.293l26.042-10.418
		c5.417,4.168,11.25,7.605,17.708,10.209l3.854,27.604c0.417,2.5,2.604,4.375,5.208,4.375h41.666c2.605,0,4.793-1.875,5.209-4.375
		l3.854-27.604c6.25-2.604,12.188-6.25,17.709-10.209l25.834,10.418c2.395,1.041,5.207,0,6.25-2.293l20.832-36.041
		c1.355-2.291,0.834-5.209-1.041-6.666l-22.084-17.188H202.396z M125,161.459c-20.104,0-36.458-16.355-36.458-36.459
		c0-20.104,16.354-36.458,36.458-36.458c20.104,0,36.459,16.354,36.459,36.458C161.459,145.104,145.104,161.459,125,161.459z"/>
</g>
</svg>
