<?xml version="1.0"?>
<svg xmlns="http://www.w3.org/2000/svg" viewBox="0 0 96 96" width="512" height="512"><g id="_19-commentator" data-name="19-commentator"><path d="M83.507,66.8a40.985,40.985,0,0,1-16.679-9.628,34.809,34.809,0,0,1-4.738-5.761A24.114,24.114,0,0,0,70.624,40H74a10,10,0,0,0,0-20H71.66a23.995,23.995,0,0,0-47.32,0H22a10,10,0,0,0-2,19.8V48a19.9,19.9,0,0,0,4.731,12.889A44.255,44.255,0,0,1,12.49,66.8,11.991,11.991,0,0,0,4,78.28V96h8V78.28a4.027,4.027,0,0,1,2.866-3.84,51.209,51.209,0,0,0,16.417-8.467A19.851,19.851,0,0,0,40,68H52V60H40a12.052,12.052,0,0,1-2.35-.234,36.244,36.244,0,0,0,3.45-4.782,23.938,23.938,0,0,0,13.8,0,41.038,41.038,0,0,0,6.272,7.844A48.973,48.973,0,0,0,81.131,74.439,4.028,4.028,0,0,1,84,78.28V96h8V78.28A11.992,11.992,0,0,0,83.507,66.8ZM76,30a2,2,0,0,1-2,2H72V28h2A2,2,0,0,1,76,30ZM22,28h2v4H22a2,2,0,0,1,0-4Zm8.694,27.562A11.937,11.937,0,0,1,28,48V45.246a24.18,24.18,0,0,0,5.91,6.165A31.719,31.719,0,0,1,30.694,55.562ZM32,32V24a16,16,0,0,1,32,0v8a16,16,0,0,1-32,0Z"/></g></svg>
