<?xml version="1.0" encoding="utf-8"?>
<!-- Generator: Adobe Illustrator 16.0.2, SVG Export Plug-In . SVG Version: 6.00 Build 0)  -->
<!DOCTYPE svg PUBLIC "-//W3C//DTD SVG 1.1//EN" "http://www.w3.org/Graphics/SVG/1.1/DTD/svg11.dtd">
<svg version="1.1" id="Layer_1" xmlns="http://www.w3.org/2000/svg" xmlns:xlink="http://www.w3.org/1999/xlink" x="0px" y="0px"
	 width="639.898px" height="359.832px" viewBox="0 0 639.898 359.832" enable-background="new 0 0 639.898 359.832"
	 xml:space="preserve">
<path fill-rule="evenodd" clip-rule="evenodd" fill="#FFFFFF" d="M0,0c0,119.992,0,239.962,0,359.832c213.334,0,426.667,0,639.898,0
	c0-120.049,0-239.951,0-359.832C426.531,0,213.266,0,0,0z"/>
<path fill-rule="evenodd" clip-rule="evenodd" d="M320.757,105.096c-42.295-0.045-76.065,33.529-76.119,75.674
	c-0.053,41.634,33.62,75.748,74.784,75.762c42.704,0.015,76.744-33.535,76.745-75.636
	C396.168,139.247,362.234,105.14,320.757,105.096z"/>
<path fill-rule="evenodd" clip-rule="evenodd" fill="#FFFFFF" d="M288.664,180.948c0-12.178-0.031-24.354,0.038-36.531
	c0.01-1.643,0.281-3.377,0.863-4.905c0.943-2.477,3.183-3.448,5.754-2.718c1.214,0.344,2.412,0.854,3.51,1.478
	c21.487,12.231,42.96,24.49,64.434,36.744c0.118,0.066,0.232,0.138,0.348,0.207c5.798,3.514,5.815,7.855-0.105,11.247
	c-21.516,12.329-43.068,24.589-64.608,36.875c-0.117,0.065-0.231,0.138-0.351,0.2c-6.081,3.197-9.856,0.979-9.872-5.866
	C288.645,205.435,288.664,193.191,288.664,180.948z"/>
</svg>
