<?xml version="1.0" encoding="utf-8"?>
<!-- Generator: Adobe Illustrator 16.0.2, SVG Export Plug-In . SVG Version: 6.00 Build 0)  -->
<!DOCTYPE svg PUBLIC "-//W3C//DTD SVG 1.1//EN" "http://www.w3.org/Graphics/SVG/1.1/DTD/svg11.dtd">
<svg version="1.1" id="Layer_1" xmlns="http://www.w3.org/2000/svg" xmlns:xlink="http://www.w3.org/1999/xlink" x="0px" y="0px"
	 width="151px" height="151px" viewBox="0 0 151 151" enable-background="new 0 0 151 151" xml:space="preserve">
<path fill-rule="evenodd" clip-rule="evenodd" d="M151,71.076c0,2.949,0,5.898,0,8.848c-0.226,1.937-0.411,3.88-0.685,5.811
	c-1.982,13.982-7.313,26.535-16.319,37.434c-11.939,14.449-27.106,23.474-45.63,26.689c-2.796,0.485-5.627,0.767-8.442,1.142
	c-2.949,0-5.898,0-8.848,0c-1.944-0.229-3.893-0.417-5.83-0.695c-18.694-2.686-34.292-11.147-46.727-25.332
	C9.278,114.43,3.466,102.194,1.138,88.347C0.669,85.555,0.375,82.732,0,79.924c0-2.949,0-5.898,0-8.848
	c0.236-1.986,0.432-3.977,0.714-5.956c2.342-16.425,9.281-30.611,20.902-42.448C32.928,11.151,46.544,3.911,62.487,1.163
	c2.845-0.491,5.726-0.78,8.589-1.163c2.949,0,5.898,0,8.848,0c1.944,0.229,3.894,0.421,5.832,0.693
	c15.045,2.109,28.332,8.116,39.679,18.222c13.139,11.702,21.385,26.207,24.407,43.593C150.334,65.346,150.619,68.219,151,71.076z
	 M55.955,86.567c-19.639-12.482-21.734-39.184-7.408-55.003c13.364-14.757,35.996-16.088,51.132-2.679
	c7.36,6.521,11.479,14.848,11.987,24.654c0.727,14.032-5.178,24.949-16.666,33.016c14.913,5.504,26.027,15.166,33.456,29.077
	c18.508-22.858,20.381-62.914-7.948-89.241C92.679,0.529,47.712,3.725,23.945,33.341C11.462,48.895,6.721,66.629,9.765,86.338
	c1.672,10.83,5.988,20.581,12.697,29.452C30.009,101.693,41.083,92.049,55.955,86.567z M75.439,92.095
	c-1.667,0.093-3.35,0.077-5.001,0.295c-18.926,2.507-32.649,12.264-41.021,29.481c-0.436,0.896-0.388,1.398,0.377,2.098
	c14.417,13.171,31.324,19.332,50.84,17.919c15.671-1.134,29.16-7.352,40.658-18.004c0.646-0.598,0.759-1.052,0.367-1.857
	C112.273,102.744,96.626,93.159,75.439,92.095z M75.601,28.421c-14.922-0.098-27.399,12.193-27.525,27.115
	c-0.129,15.172,12.074,27.619,27.177,27.719c15.244,0.102,27.59-12.111,27.67-27.371C103.002,40.91,90.675,28.52,75.601,28.421z"/>
</svg>
