<?xml version="1.0" encoding="utf-8"?>
<!-- Generator: Adobe Illustrator 16.0.2, SVG Export Plug-In . SVG Version: 6.00 Build 0)  -->
<!DOCTYPE svg PUBLIC "-//W3C//DTD SVG 1.1//EN" "http://www.w3.org/Graphics/SVG/1.1/DTD/svg11.dtd">
<svg version="1.1" id="Layer_1" xmlns="http://www.w3.org/2000/svg" xmlns:xlink="http://www.w3.org/1999/xlink" x="0px" y="0px"
	 width="20px" height="20px" viewBox="2.5 2.5 20 20" enable-background="new 2.5 2.5 20 20" xml:space="preserve">
<g id="make-copy" transform="translate(210.000000, 10.000000)">
	<path id="Combined-Shape_1_" fill="#FFFFFF" d="M-194.5,3.5v-2c0-0.552-0.447-1-1-1s-1,0.448-1,1v2h-2c-0.553,0-1,0.447-1,1
		s0.447,1,1,1h2v2c0,0.553,0.447,1,1,1s1-0.447,1-1v-2h2c0.553,0,1-0.447,1-1s-0.447-1-1-1H-194.5z M-201.5-3.5h12
		c1.104,0,2,0.896,2,2v12c0,1.104-0.896,2-2,2h-12c-1.104,0-2-0.896-2-2v-12C-203.5-2.604-202.604-3.5-201.5-3.5z"/>
	<path id="Combined-Shape_2_" fill="#FFFFFF" d="M-191.5-3.5h-2v-1c0-0.552-0.447-1-1-1h-10c-0.553,0-1,0.448-1,1v10
		c0,0.553,0.447,1,1,1h1v2h-1c-1.656,0-3-1.344-3-3v-10c0-1.657,1.344-3,3-3h10c1.656,0,3,1.343,3,3V-3.5z"/>
</g>
</svg>
