<?xml version="1.0" encoding="utf-8"?>
<!-- Generator: Adobe Illustrator 16.0.2, SVG Export Plug-In . SVG Version: 6.00 Build 0)  -->
<!DOCTYPE svg PUBLIC "-//W3C//DTD SVG 1.1//EN" "http://www.w3.org/Graphics/SVG/1.1/DTD/svg11.dtd">
<svg version="1.1" id="Layer_1" xmlns="http://www.w3.org/2000/svg" xmlns:xlink="http://www.w3.org/1999/xlink" x="0px" y="0px"
	 width="14px" height="18px" viewBox="0 0 14 18" enable-background="new 0 0 14 18" xml:space="preserve">
<g id="delete" transform="translate(93.000000, 11.000000)">
	<path id="Rectangle-11" fill="#FFFFFF" d="M-92-6h12l-0.857,11.153C-80.938,6.195-81.807,7-82.852,7h-6.296
		c-1.045,0-1.914-0.805-1.994-1.847L-92-6z"/>
	<path id="Rectangle-12" fill="#FFFFFF" d="M-92-9h12c0.553,0,1,0.448,1,1l0,0c0,0.552-0.447,1-1,1h-12c-0.552,0-1-0.448-1-1l0,0
		C-93-8.552-92.552-9-92-9z"/>
	<path id="Rectangle-13" fill="#FFFFFF" d="M-88-11h4c0.553,0,1,0.448,1,1l0,0c0,0.552-0.447,1-1,1h-4c-0.552,0-1-0.448-1-1l0,0
		C-89-10.552-88.552-11-88-11z"/>
</g>
</svg>
