<?xml version="1.0" encoding="utf-8"?>
<!-- Generator: Adobe Illustrator 16.0.2, SVG Export Plug-In . SVG Version: 6.00 Build 0)  -->
<!DOCTYPE svg PUBLIC "-//W3C//DTD SVG 1.1//EN" "http://www.w3.org/Graphics/SVG/1.1/DTD/svg11.dtd">
<svg version="1.1" id="Layer_1" xmlns="http://www.w3.org/2000/svg" xmlns:xlink="http://www.w3.org/1999/xlink" x="0px" y="0px"
	 width="20px" height="17px" viewBox="1.989 4 20 17" enable-background="new 1.989 4 20 17" xml:space="preserve">
<path id="move" fill="#FFFFFF" d="M12.988,12h-5.5c-0.276,0-0.5,0.224-0.5,0.5v1c0,0.275,0.224,0.5,0.5,0.5h5.5v1.46
	c0,0.114,0.04,0.224,0.11,0.313c0.172,0.216,0.486,0.25,0.702,0.078l3.077-2.461c0.029-0.022,0.055-0.049,0.078-0.078
	c0.173-0.215,0.138-0.53-0.078-0.703L13.8,10.15c-0.088-0.071-0.198-0.109-0.312-0.109c-0.276,0-0.5,0.224-0.5,0.5V12z M3.988,4
	H7.81c0.191,0,0.379,0.055,0.54,0.158l2.623,1.684C11.134,5.945,11.321,6,11.513,6h8.475c1.104,0,2,0.896,2,2v11
	c0,1.104-0.896,2-2,2h-16c-1.104,0-2-0.896-2-2V6C1.988,4.896,2.884,4,3.988,4z"/>
</svg>
